<svg id="SvgjsSvg1001" width="288" height="288" xmlns="http://www.w3.org/2000/svg" version="1.1" xmlns:xlink="http://www.w3.org/1999/xlink" xmlns:svgjs="http://svgjs.com/svgjs"><defs id="SvgjsDefs1002"></defs><g id="SvgjsG1008"><svg xmlns="http://www.w3.org/2000/svg" viewBox="0 0 100 100" width="288" height="288"><path d="M87 63c0-5.5-4.5-10-10-10s-10 4.5-10 10 4.5 10 10 10 10-4.5 10-10zm-10 6c-3.3 0-6-2.7-6-6s2.7-6 6-6 6 2.7 6 6-2.7 6-6 6zm0 4c-3.8 0-7.4 1.2-10.3 3.3C64 69.7 57.5 65 50 65s-14 4.7-16.7 11.3c-2.9-2-6.5-3.3-10.3-3.3-9.9 0-18 8.1-18 18v2c0 1.1.9 2 2 2h86c1.1 0 2-.9 2-2v-2c0-9.9-8.1-18-18-18zM32 83v8H9c0-7.7 6.3-14 14-14 3.5 0 6.7 1.3 9.2 3.5-.1.8-.2 1.6-.2 2.5zm32 8H36v-8c0-7.7 6.3-14 14-14s14 6.3 14 14v8zm4 0v-8c0-.9-.1-1.7-.2-2.5 2.5-2.1 5.7-3.5 9.2-3.5 7.7 0 14 6.3 14 14H68zM33 63c0-5.5-4.5-10-10-10s-10 4.5-10 10 4.5 10 10 10 10-4.5 10-10zm-10 6c-3.3 0-6-2.7-6-6s2.7-6 6-6 6 2.7 6 6-2.7 6-6 6zm37-14c0-5.5-4.5-10-10-10s-10 4.5-10 10 4.5 10 10 10 10-4.5 10-10zm-10 6c-3.3 0-6-2.7-6-6s2.7-6 6-6 6 2.7 6 6-2.7 6-6 6zM12.9 25.5l-1.5 9.1c-.1.8.2 1.5.8 2 .6.4 1.5.5 2.1.1l7.7-4.2 7.7 4.2c.3.2.6.2 1 .2s.8-.1 1.1-.4c.6-.4 1-1.2.8-2l-1.5-9.1 4.9-5 4.9 5-1.5 9.1c-.1.8.2 1.5.8 2 .6.4 1.5.5 2.1.1l7.7-4.2 7.7 4.2c.3.2.6.2 1 .2s.8-.1 1.1-.4c.6-.4 1-1.2.8-2l-1.5-9.1 4.9-5 4.9 5-1.5 9.1c-.1.8.2 1.5.8 2 .6.4 1.5.5 2.1.1l7.7-4.2 7.7 4.2c.3.2.6.2 1 .2s.8-.1 1.1-.4c.6-.4 1-1.2.8-2l-1.5-9.1 6.3-6.5c.5-.5.7-1.3.5-2-.2-.7-.9-1.2-1.6-1.3l-8.6-1.3-3.9-8.2c-.3-.4-1-.9-1.8-.9s-1.5.5-1.8 1.1l-3.9 8.2-8.3 1.4-8.3-1.3-3.9-8.2c-.3-.7-1-1.2-1.8-1.2s-1.5.5-1.8 1.1l-3.9 8.2-8.3 1.4-8.3-1.3-3.9-8.2c-.3-.7-1-1.2-1.8-1.2s-1.5.5-1.8 1.1l-3.9 8.2-8.6 1.3c-.7.1-1.4.6-1.6 1.3-.2.7-.1 1.5.5 2l6.3 6.6zM74 18.2c.7-.1 1.2-.5 1.5-1.1l2.5-5.4 2.5 5.4c.3.6.8 1 1.5 1.1l5.8.9-4.3 4.4c-.5.5-.7 1.1-.5 1.7l1 6.1-5-2.8c-.3-.2-.6-.2-1-.2s-.7.1-1 .2l-5 2.8 1-6.1c.1-.6-.1-1.3-.5-1.7l-4.3-4.4 5.8-.9zm-28 0c.7-.1 1.2-.5 1.5-1.1l2.5-5.4 2.5 5.4c.3.6.8 1 1.5 1.1l5.8.9-4.3 4.4c-.5.5-.7 1.1-.5 1.7l1 6.1-5-2.8c-.3-.2-.6-.2-1-.2s-.7.1-1 .2l-5 2.8 1-6.1c.1-.6-.1-1.3-.5-1.7l-4.3-4.4 5.8-.9zm-28 0c.7-.1 1.2-.5 1.5-1.1l2.5-5.4 2.5 5.4c.3.6.8 1 1.5 1.1l5.8.9-4.3 4.4c-.5.5-.7 1.1-.5 1.7l1 6.1-5-2.8c-.3-.2-.6-.2-1-.2s-.7.1-1 .2l-5 2.8 1-6.1c.1-.6-.1-1.3-.5-1.7l-4.3-4.4 5.8-.9z" fill="#0897ab" class="svgShape color000000-0 selectable"></path></svg></g></svg>