<svg id="SvgjsSvg1001" width="288" height="288" xmlns="http://www.w3.org/2000/svg" version="1.1" xmlns:xlink="http://www.w3.org/1999/xlink" xmlns:svgjs="http://svgjs.com/svgjs"><defs id="SvgjsDefs1002"></defs><g id="SvgjsG1008"><svg xmlns="http://www.w3.org/2000/svg" viewBox="0 0 64 64" width="288" height="288"><g><path d="M20.15 60.88a3.062 3.062 0 0 0 4.7 0c2.39-3 9.72-11.88 9.72-11.88A18.8 18.8 0 0 0 43 51a19 19 0 1 0-7.77-36.32V5.04A3.039 3.039 0 0 0 32.19 2H12.81a3.039 3.039 0 0 0-3.04 3.04v29.61s-3.49.02-4.65 0a3.072 3.072 0 0 0-2.35 4.97c4.44 5.24 13.11 15.88 17.38 21.26ZM43 15a17 17 0 1 1-17 17 17.024 17.024 0 0 1 17-17Z" fill="#0897ab" class="svgShape color000000-1 selectable"></path><circle cx="37" cy="26" r="4" fill="#0897ab" class="svgShape color000000-2 selectable"></circle><circle cx="49" cy="38" r="4" fill="#0897ab" class="svgShape color000000-3 selectable"></circle><path d="M33.88 38a3.169 3.169 0 0 0 .91 2.21 3.132 3.132 0 0 0 4.41-.02l11.92-12.07a3.027 3.027 0 0 0 0-4.24 3.1 3.1 0 0 0-4.24-.01L34.81 35.8a3.047 3.047 0 0 0-.93 2.2Z" fill="#0897ab" class="svgShape color000000-4 selectable"></path></g></svg></g></svg>