<svg id="SvgjsSvg1001" width="288" height="288" xmlns="http://www.w3.org/2000/svg" version="1.1" xmlns:xlink="http://www.w3.org/1999/xlink" xmlns:svgjs="http://svgjs.com/svgjs"><defs id="SvgjsDefs1002"></defs><g id="SvgjsG1008"><svg xmlns="http://www.w3.org/2000/svg" viewBox="0 0 24 24" width="288" height="288"><path d="m14.484,21.748c-.531,0-1.062-.111-1.552-.335-.593-.27-1.272-.27-1.864,0-.943.427-2.033.445-2.988.051-.957-.396-1.714-1.18-2.077-2.148-.229-.609-.709-1.09-1.318-1.318-.969-.363-1.752-1.121-2.148-2.077-.396-.957-.378-2.046.051-2.988.269-.592.269-1.271,0-1.863-.429-.942-.447-2.031-.051-2.988.396-.956,1.179-1.714,2.149-2.077.608-.229,1.089-.709,1.317-1.318.363-.969,1.121-1.752,2.077-2.148.956-.395,2.045-.379,2.988.051.593.27,1.272.27,1.864,0h0c.942-.43,2.032-.446,2.988-.051.957.396,1.714,1.18,2.077,2.148.229.609.709,1.09,1.318,1.318.969.363,1.752,1.121,2.148,2.077.396.957.378,2.046-.051,2.988-.269.592-.269,1.271,0,1.863.429.942.447,2.031.051,2.988-.396.956-1.179,1.714-2.149,2.077-.608.229-1.089.709-1.317,1.318-.363.969-1.121,1.752-2.077,2.148-.458.189-.947.284-1.436.284Zm-2.484-2.037c.53,0,1.06.112,1.553.337.573.261,1.21.27,1.793.03.583-.241,1.025-.699,1.247-1.29.38-1.014,1.18-1.814,2.195-2.195.591-.222,1.049-.664,1.29-1.247.241-.582.23-1.219-.03-1.793-.448-.987-.448-2.118,0-3.105.261-.574.271-1.211.03-1.793-.241-.583-.699-1.025-1.29-1.247-1.015-.381-1.815-1.182-2.195-2.195-.222-.591-.664-1.049-1.247-1.29-.583-.24-1.219-.23-1.793.03h0c-.986.449-2.119.449-3.105,0-.575-.262-1.211-.271-1.793-.03-.583.241-1.025.699-1.247,1.29-.38,1.014-1.18,1.814-2.195,2.195-.591.222-1.049.664-1.29,1.247-.241.582-.23,1.219.03,1.793.448.987.448,2.118,0,3.105-.261.574-.271,1.211-.03,1.793.241.583.699,1.025,1.29,1.247,1.015.381,1.815,1.182,2.195,2.195.222.591.664,1.049,1.247,1.29.583.24,1.219.231,1.794-.03.493-.225,1.022-.337,1.552-.337Zm3.53-10.181l-6,6c-.146.146-.338.22-.53.22s-.384-.073-.53-.22c-.293-.293-.293-.768,0-1.061l6-6c.293-.293.768-.293,1.061,0s.293.768,0,1.061Zm-6.53.47c.552,0,1-.448,1-1s-.448-1-1-1-1,.448-1,1,.448,1,1,1Zm6,4c-.552,0-1,.448-1,1s.448,1,1,1,1-.448,1-1-.448-1-1-1Z" fill="#0897ab" class="svgShape color000000-0 selectable"></path></svg></g></svg>