<svg id="SvgjsSvg1001" width="288" height="288" xmlns="http://www.w3.org/2000/svg" version="1.1" xmlns:xlink="http://www.w3.org/1999/xlink" xmlns:svgjs="http://svgjs.com/svgjs"><defs id="SvgjsDefs1002"></defs><g id="SvgjsG1008"><svg xmlns="http://www.w3.org/2000/svg" viewBox="0 0 128 128" width="288" height="288"><path d="M28.983 68.71588a2.96564 2.96564 0 0 0 1.23529-2.94035L28.6944 56.55845l6.44128-6.51105a2.98755 2.98755 0 0 0-1.665-5.05461l-8.827-1.33034-3.96429-8.3297a2.96317 2.96317 0 0 0-5.35736-.00049l-3.96429 8.33019-8.827 1.33034a2.98724 2.98724 0 0 0-1.665 5.05412L7.307 56.55845 5.78308 65.77553a2.96546 2.96546 0 0 0 4.34515 3.11138l7.87244-4.29144 7.87195 4.29144A2.942 2.942 0 0 0 28.983 68.71588zM18.00116 60.48714a2.96434 2.96434 0 0 0-1.41693.36226l-6.52142 3.55526 1.269-7.6728a2.99944 2.99944 0 0 0-.82324-2.59445L5.04681 48.61617 12.511 47.49159A2.96834 2.96834 0 0 0 14.7478 45.829l3.25287-6.83517 3.25293 6.83468a2.9676 2.9676 0 0 0 2.23822 1.66312l7.46277 1.12458L25.4928 54.13693a2.99886 2.99886 0 0 0-.82324 2.593l1.269 7.67469-6.5238-3.55672A2.95515 2.95515 0 0 0 18.00116 60.48714zM127.84033 46.98393a2.96066 2.96066 0 0 0-2.371-1.99114l-8.827-1.33034-3.96429-8.3297a2.96317 2.96317 0 0 0-5.35736-.00049l-3.96429 8.33019-8.827 1.33034a2.98724 2.98724 0 0 0-1.665 5.05412l6.44128 6.51154-1.52386 9.21708a2.96546 2.96546 0 0 0 4.34515 3.11138l7.87244-4.29144 7.87195 4.29144a2.97163 2.97163 0 0 0 4.34564-3.11138L120.693 56.55845l6.44128-6.51105A2.97827 2.97827 0 0 0 127.84033 46.98393zm-10.34894 7.153a2.99886 2.99886 0 0 0-.82324 2.593l1.269 7.67469-6.52386-3.55672a2.95084 2.95084 0 0 0-2.83051.00146l-6.52136 3.55526 1.269-7.6728a2.99944 2.99944 0 0 0-.82324-2.59445l-5.46179-5.52125 7.46423-1.12458A2.96823 2.96823 0 0 0 106.7464 45.829l3.25293-6.83517 3.25287 6.83468a2.9677 2.9677 0 0 0 2.23822 1.66312l7.46277 1.12458zM53.30634 22.9222l-1.52393 9.21708a2.96545 2.96545 0 0 0 4.34515 3.11132L64 30.95922l7.87195 4.29138a2.97158 2.97158 0 0 0 4.34564-3.11132L74.69366 22.9222 81.135 16.41115a2.98758 2.98758 0 0 0-1.665-5.05467l-8.827-1.33028L66.67865 1.69645a2.96317 2.96317 0 0 0-5.3573-.00049L57.35706 10.0262 48.53 11.35648a2.98727 2.98727 0 0 0-1.665 5.05418zm5.204-9.06686a2.96851 2.96851 0 0 0 2.23682-1.66269L64 5.35748l3.25287 6.83468a2.96787 2.96787 0 0 0 2.23828 1.66318l7.46277 1.12451-5.46185 5.52082a2.99874 2.99874 0 0 0-.82324 2.593l1.269 7.67475-6.5238-3.55672a2.95053 2.95053 0 0 0-2.83057.00146l-6.52136 3.55526 1.269-7.6728a2.99938 2.99938 0 0 0-.82324-2.59445l-5.46185-5.52131zM10.51593 17.298l-.89209 5.3913a2.60645 2.60645 0 0 0 3.81885 2.71329l4.558-2.48476 4.55951 2.48574A2.60632 2.60632 0 0 0 26.377 22.68794L25.48547 17.298l3.76166-3.8021a2.60709 2.60709 0 0 0-1.46484-4.41071l-5.12152-.772L20.3537 3.46541a2.60584 2.60584 0 0 0-4.706-.00049L13.34064 8.31328l-5.12152.772a2.607 2.607 0 0 0-1.46387 4.41169zm4.16351-5.18364a2.60152 2.60152 0 0 0 1.9668-1.45687l1.35443-2.8466 1.355 2.84709a2.59892 2.59892 0 0 0 1.96387 1.45589l3.2182.485L22.14563 15.0166a2.61667 2.61667 0 0 0-.71722 2.25825l.54437 3.29-2.725-1.48537a2.59314 2.59314 0 0 0-2.49408 0l-2.7251 1.48537.54443-3.29053a2.61692 2.61692 0 0 0-.71875-2.25922l-2.39056-2.41621zM102.51453 17.298l-.892 5.3913a2.6064 2.6064 0 0 0 3.81879 2.71329l4.558-2.48476 4.55945 2.48574a2.60637 2.60637 0 0 0 3.81689-2.71567l-.8916-5.38989 3.76166-3.8021a2.607 2.607 0 0 0-1.46484-4.41071l-5.12152-.772-2.30707-4.84787a2.60584 2.60584 0 0 0-4.706-.00049l-2.30707 4.84836-5.12152.772a2.60708 2.60708 0 0 0-1.46387 4.41169zM106.678 12.1144a2.60152 2.60152 0 0 0 1.9668-1.45687l1.35449-2.8466 1.35492 2.84709a2.59892 2.59892 0 0 0 1.96387 1.45589l3.2182.485-2.392 2.41768a2.61653 2.61653 0 0 0-.71729 2.25825l.54443 3.29-2.7251-1.48537a2.59314 2.59314 0 0 0-2.49408 0l-2.725 1.48537.54437-3.29053a2.61706 2.61706 0 0 0-.71869-2.25922l-2.39062-2.41621zM90.82574 55.04073L74.56622 52.76606l-7.2616-14.16743a3.73492 3.73492 0 0 0-6.60925 0l-7.2616 14.16743L37.17426 55.04073a3.6459 3.6459 0 0 0-3.00049 2.48867 3.53418 3.53418 0 0 0 .96436 3.692l11.73224 11.0121L45.7193 78.69637A10.12616 10.12616 0 0 1 47.152 80.16874l3.173-4.529.5199-2.91887a3.5522 3.5522 0 0 0-1.08051-3.22534l-11.33-10.63433 15.70874-2.19788a3.69336 3.69336 0 0 0 2.78125-1.9583L64 40.90089 71.07556 54.705a3.69338 3.69338 0 0 0 2.78076 1.9583L89.56506 58.8612 78.23657 69.49455a3.55354 3.55354 0 0 0-1.082 3.22534l2.68646 15.08179-8.56189-4.33441a9.8011 9.8011 0 0 1 1.33954 4.51045 9.76979 9.76979 0 0 1 1.54187 1.39369l4.39435 2.22467a3.74205 3.74205 0 0 0 3.91449-.31545 3.55475 3.55475 0 0 0 1.42725-3.5118l-2.767-15.53537 11.73273-11.0121a3.53491 3.53491 0 0 0 .96387-3.692A3.6459 3.6459 0 0 0 90.82574 55.04073z" fill="#0897ab" class="svgShape color000000-0 selectable"></path><path d="M74.52234,99.82574a5.82728,5.82728,0,0,0-2.16644-.95532,5.86833,5.86833,0,0,0-4.006-7.63471,5.8651,5.8651,0,0,0-3.96368-7.54511l4.52393-6.54517a5.853,5.853,0,0,0-1.46893-8.057,5.75983,5.75983,0,0,0-4.35706-.9981A5.61338,5.61338,0,0,0,59.41418,70.441L46.03656,89.79167a11.99013,11.99013,0,0,0-1.78064-6.07853A5.76942,5.76942,0,0,0,40.457,81.295a4.58552,4.58552,0,0,0-3.79553.6558c-2.35,1.59286-3.53058,5.16436-3.6095,10.91658l-1.614,20.20482a3.94548,3.94548,0,0,0-4.42682,1.06818l-3.00946,3.41175a4.00773,4.00773,0,0,0,.42712,5.71755l4.73944,3.97825a1.998,1.998,0,0,0,2.56091-3.06756l-4.739-3.97819,3.00946-3.41279,12.80683,10.751a1.99793,1.99793,0,0,0,2.56183-3.06658L35.211,115.94733l1.82349-22.82747c.00342-.04492.00586-.09034.00635-.13526.0711-5.881,1.39192-7.36212,1.79536-7.67626.67824-.528,1.7594.14847,2.16918.72426,1.515,2.12872,1.18018,7.51544.60736,10.4497a2.06275,2.06275,0,0,0,1.21552,2.24008A2.19094,2.19094,0,0,0,45.471,97.63082L62.6919,72.7211a1.76694,1.76694,0,0,1,2.44018-.3708,1.83367,1.83367,0,0,1,.49878,2.5162l-17.482,25.29276a2.004,2.004,0,0,0,.5036,2.7833,2.23745,2.23745,0,0,0,2.96558-.545L61.44568,88.186a1.64374,1.64374,0,0,1,1.07733-.69047,1.79459,1.79459,0,0,1,1.36029.31935,1.83434,1.83434,0,0,1,.49683,2.51723L54.4361,104.68a1.99665,1.99665,0,1,0,3.27881,2.27943l7.86072-11.33414a1.64871,1.64871,0,0,1,.97522-.56491,1.79953,1.79953,0,0,1,1.3623.31887,1.83784,1.83784,0,0,1,.49774,2.52163L60.74872,108.979a2.27127,2.27127,0,0,0,1.16584,3.26755,2.105,2.105,0,0,0,2.28728-.75081l5.57129-8.03946a1.6447,1.6447,0,0,1,1.0769-.68656,1.79986,1.79986,0,0,1,1.36322.31838,1.83833,1.83833,0,0,1,.48846,2.53188l-13.061,19.26263a1.99648,1.99648,0,1,0,3.29926,2.24915l13.05133-19.248A5.855,5.855,0,0,0,74.52234,99.82574Z" fill="#0897ab" class="svgShape color000000-1 selectable"></path></svg></g></svg>