<svg id="SvgjsSvg1001" width="288" height="288" xmlns="http://www.w3.org/2000/svg" version="1.1" xmlns:xlink="http://www.w3.org/1999/xlink" xmlns:svgjs="http://svgjs.com/svgjs"><defs id="SvgjsDefs1002"></defs><g id="SvgjsG1008"><svg xmlns="http://www.w3.org/2000/svg" viewBox="0 0 100 100" width="288" height="288"><path d="M76.85,48.86a6,6,0,0,0,6-6V9a6,6,0,0,0-6-5.95H69.13a6,6,0,0,0-5.72,4.32H28.48a4.22,4.22,0,0,0-4.22,4.22V15a4.27,4.27,0,0,0,.59,2.12A4.22,4.22,0,0,0,23,20.57v3.12a4.16,4.16,0,0,0,.23,1.38,4.23,4.23,0,0,0-3.94,4.21v3.45a4.14,4.14,0,0,0,.59,2.12,4.58,4.58,0,0,0-2.7,4v2.38c0,2.66,2.62,4.75,6,4.75H41.88V57.33a9.79,9.79,0,0,0,9.78,9.78,2,2,0,0,0,2-2V58.78a15.09,15.09,0,0,1,4.92-11.14L63.2,43.4a6,6,0,0,0,5.93,5.46ZM56.62,45.53a18,18,0,0,0-5.85,13.25v5.43a7,7,0,0,1-6-6.88V45.09a2,2,0,0,0-1.67-1.93,1.36,1.36,0,0,0-.29,0H23.16c-1.83,0-3.11-1-3.11-1.9V38.85c0-.9,1.28-1.9,3.11-1.9h6.25a1.43,1.43,0,0,0,0-2.85H23.53a1.38,1.38,0,0,1-1.38-1.37V29.28a1.38,1.38,0,0,1,1.38-1.37h8.81a1.43,1.43,0,1,0,0-2.85h-5.1a1.37,1.37,0,0,1-1.38-1.37V20.57a1.38,1.38,0,0,1,1.38-1.37,1.38,1.38,0,0,0,.45-.08,4.15,4.15,0,0,0,.79.08h7.05a1.43,1.43,0,0,0,0-2.85h-7A1.37,1.37,0,0,1,27.11,15V11.54a1.37,1.37,0,0,1,1.37-1.37H63.17v29.4ZM66,42.91V9a3.11,3.11,0,0,1,3.11-3.1h7.72A3.1,3.1,0,0,1,80,9v34a3.1,3.1,0,0,1-3.1,3.1H69.13A3.11,3.11,0,0,1,66,42.91Z" fill="#0897ab" class="svgShape color000000-0 selectable"></path><path d="M93.57 67.43L87.8 61.87 89.11 54a1.43 1.43 0 00-.57-1.39 1.45 1.45 0 00-1.5-.1L80 56.24l-7.11-3.69a1.43 1.43 0 00-2.06 1.52L72.19 62l-5.71 5.62a1.43 1.43 0 00.8 2.43l7.94 1.11 3.59 7.16a1.41 1.41 0 001.27.79h0a1.4 1.4 0 001.27-.8l3.51-7.21 7.92-1.19a1.43 1.43 0 00.78-2.44zm-9.87.93a1.41 1.41 0 00-1.06.78l-2.58 5.29-2.63-5.26a1.4 1.4 0 00-1.07-.77l-5.82-.81 4.18-4.13a1.38 1.38 0 00.4-1.26l-1-5.79 5.22 2.71a1.43 1.43 0 001.32 0l5.19-2.77-1 5.8a1.42 1.42 0 00.41 1.26l4.24 4.08zM27.74 61.87L29.05 54A1.43 1.43 0 0027 52.47L19.9 56.24l-7.12-3.69a1.42 1.42 0 00-2 1.52L12.13 62 6.42 67.58A1.43 1.43 0 007.22 70l7.94 1.11 3.59 7.16a1.41 1.41 0 001.27.79h0a1.41 1.41 0 001.27-.8l3.51-7.21 7.92-1.19a1.43 1.43 0 00.78-2.44zm-4.1 6.49a1.44 1.44 0 00-1.07.78L20 74.43l-2.63-5.26a1.4 1.4 0 00-1.08-.77l-5.82-.81 4.19-4.13a1.44 1.44 0 00.4-1.26l-1-5.79 5.21 2.71a1.45 1.45 0 001.33 0l5.19-2.77-1 5.8a1.43 1.43 0 00.42 1.26l4.23 4.08zM57.77 79.8l1.31-7.91a1.43 1.43 0 00-.57-1.39A1.47 1.47 0 0057 70.4l-7.07 3.77-7.11-3.69A1.43 1.43 0 0040.76 72l1.4 7.9-5.71 5.62A1.41 1.41 0 0036.1 87a1.43 1.43 0 001.15 1l7.94 1.11 3.59 7.16a1.41 1.41 0 001.27.79h0a1.41 1.41 0 001.27-.8L54.84 89l7.92-1.19a1.43 1.43 0 00.78-2.44zm-4.1 6.49a1.41 1.41 0 00-1.06.78L50 92.36 47.4 87.1a1.4 1.4 0 00-1.08-.77l-5.82-.81 4.19-4.13a1.41 1.41 0 00.4-1.26l-1-5.79 5.22 2.71a1.43 1.43 0 001.32 0l5.19-2.77-1 5.8a1.43 1.43 0 00.41 1.26l4.23 4.08z" fill="#0897ab" class="svgShape color000000-1 selectable"></path></svg></g></svg>