<svg id="SvgjsSvg1001" width="288" height="288" xmlns="http://www.w3.org/2000/svg" version="1.1" xmlns:xlink="http://www.w3.org/1999/xlink" xmlns:svgjs="http://svgjs.com/svgjs"><defs id="SvgjsDefs1002"></defs><g id="SvgjsG1008"><svg xmlns="http://www.w3.org/2000/svg" viewBox="0 0 120 120" width="288" height="288"><path d="M39.47,64.49v1.42a2.42,2.42,0,0,0,0,.25,5.43,5.43,0,0,0-4.68,5.64c0,5.52,8.11,5.46,8.11,8.61,0,1.39-.77,2.11-2.51,2.11a5.94,5.94,0,0,1-3-.86,1.84,1.84,0,0,0-1.78,3.21,10.78,10.78,0,0,0,3.8,1.21v1.57a1.5,1.5,0,0,0,3,0V85.94a5.64,5.64,0,0,0,4.78-5.85c0-5.84-8.11-5.59-8.11-8.5,0-1.38.8-2,2.28-2a4,4,0,0,1,2.16.62,1.77,1.77,0,0,0,1.91-3,7,7,0,0,0-3-1.18,1.1,1.1,0,0,0,0-.18V64.49a1.5,1.5,0,0,0-3,0Z" fill="#0897ab" class="svgShape color000000-0 selectable"></path><path d="M23.24,100H56.75A9.29,9.29,0,0,0,66,90.68V73.43L78.62,60.85H84A11,11,0,1,0,95,49.36H90.14l4.4-4.4a10.95,10.95,0,0,0,0-15.53,11,11,0,0,0-15.56,0,11,11,0,0,0-.35,15.17l-4.78,4.76H66V41.17a9.37,9.37,0,0,0-3.93-7.63L45.31,21.69a9.2,9.2,0,0,0-10.62,0L17.93,33.54A9.37,9.37,0,0,0,14,41.17V90.68A9.29,9.29,0,0,0,23.24,100ZM74.68,53.36a2,2,0,0,0,1.41-.59L83,45.93a2,2,0,0,0-.25-3,7.28,7.28,0,0,1-.91-.75,7,7,0,0,1,0-9.87,7,7,0,0,1,9.92,0,7,7,0,0,1,0,9.87l-7.83,7.81a2,2,0,0,0,1.41,3.42H95a7,7,0,1,1-7,7,6.27,6.27,0,0,1,.11-1.16,2,2,0,0,0-.45-1.63,2,2,0,0,0-1.53-.7H77.79a2,2,0,0,0-1.41.58L66,67.78V62.84l2.59-2.58a2,2,0,0,0-1.41-3.41H44.46a4,4,0,0,1,4-3.49ZM18,41.17a5.35,5.35,0,0,1,2.24-4.36L37,25a5.2,5.2,0,0,1,6,0L59.75,36.81A5.33,5.33,0,0,1,62,41.17v8.19H48.44a8,8,0,0,0-8,8v1.5a2,2,0,0,0,2,2H62V90.68A5.29,5.29,0,0,1,56.75,96H23.24A5.29,5.29,0,0,1,18,90.68Z" fill="#0897ab" class="svgShape color000000-1 selectable"></path><path d="M95 65.34a5 5 0 10-5-5A5 5 0 0095 65.34zm0-6a1 1 0 11-1 1A1 1 0 0195 59.35zM90.3 40.73a5 5 0 10-3.54 1.46A5 5 0 0090.3 40.73zm-4.54-3.54a1 1 0 01.29-.7 1 1 0 01.71-.29 1 1 0 01.71.29 1 1 0 010 1.41 1 1 0 01-1.71-.71zM39.86 43.07a5.89 5.89 0 10-4.17-1.72A5.88 5.88 0 0039.86 43.07zm-1.35-7.23a1.92 1.92 0 012.71 0 1.85 1.85 0 01.55 1.34 1.88 1.88 0 01-.55 1.34 1.93 1.93 0 01-2.71 0A1.88 1.88 0 0138 37.18 1.85 1.85 0 0138.51 35.84z" fill="#0897ab" class="svgShape color000000-2 selectable"></path></svg></g></svg>