<svg id="SvgjsSvg1020" width="288" height="288" xmlns="http://www.w3.org/2000/svg" version="1.1" xmlns:xlink="http://www.w3.org/1999/xlink" xmlns:svgjs="http://svgjs.com/svgjs"><defs id="SvgjsDefs1021"></defs><g id="SvgjsG1022"><svg xmlns="http://www.w3.org/2000/svg" enable-background="new 0 0 64 64" viewBox="0 0 64 64" width="288" height="288"><path fill="#0897ab" d="M35.97,58.81H23.39c-0.79,0-1.43-0.64-1.43-1.43V33.26L2.18,13.37c-0.27-0.27-0.42-0.63-0.42-1.01V1.43
					C1.76,0.64,2.4,0,3.19,0h52.62c0.79,0,1.43,0.64,1.43,1.43v10.93c0,0.38-0.15,0.74-0.41,1.01L36.71,33.75
					c-0.56,0.56-1.46,0.57-2.03,0.01c-0.56-0.56-0.57-1.46-0.01-2.03l19.72-19.97V2.87H4.63v8.9L24.4,31.66
					c0.27,0.27,0.42,0.63,0.42,1.01v23.27h9.7l-0.19-12.1c-0.01-0.79,0.62-1.44,1.41-1.45c0.01,0,0.01,0,0.02,0
					c0.78,0,1.42,0.63,1.43,1.41l0.21,13.56c0.01,0.38-0.14,0.75-0.41,1.03C36.72,58.66,36.36,58.81,35.97,58.81z" class="svgShape color34495c-0 selectable"></path><path fill="#0897ab" d="M60.8,64c-0.37,0-0.73-0.14-1.01-0.42L35.56,39.35c-0.56-0.56-0.56-1.47,0-2.03c0.56-0.56,1.47-0.56,2.03,0
			l24.23,24.23c0.56,0.56,0.56,1.47,0,2.03C61.54,63.86,61.17,64,60.8,64z" class="svgShape colorf6b64e-1 selectable"></path><path fill="#0897ab" d="M36.57,64c-0.37,0-0.73-0.14-1.01-0.42c-0.56-0.56-0.56-1.47,0-2.03l24.23-24.23c0.56-0.56,1.47-0.56,2.03,0
			c0.56,0.56,0.56,1.47,0,2.03L37.59,63.58C37.31,63.86,36.94,64,36.57,64z" class="svgShape colorf6b64e-2 selectable"></path></svg></g></svg>