<svg id="SvgjsSvg1001" width="288" height="288" xmlns="http://www.w3.org/2000/svg" version="1.1" xmlns:xlink="http://www.w3.org/1999/xlink" xmlns:svgjs="http://svgjs.com/svgjs"><defs id="SvgjsDefs1002"></defs><g id="SvgjsG1008"><svg xmlns="http://www.w3.org/2000/svg" viewBox="0 0 24 24" width="288" height="288"><clipPath id="a"><path d="m0 0h24v24h-24z" fill="none" class="selectable"></path></clipPath><g clip-path="url(#a)"><path d="m20.4609 3.52031c-2.264-2.26406-5.2734-3.52031-8.475-3.52031-3.20152 0-6.2109 1.25625-8.47496 3.52031s-3.51094 5.28282-3.51094 8.48439c0 3.2016 1.24688 6.2156 3.51094 8.4797 2.26406 2.264 5.27344 3.5156 8.47496 3.5156 3.2016 0 6.211-1.2516 8.475-3.5156 2.2641-2.2641 3.511-5.2781 3.511-8.4844 0-3.20156-1.2469-6.21563-3.511-8.47969zm-1.3265 15.63749c-1.9078 1.9078-4.4485 2.9625-7.1531 2.9625-5.57349-.0047-10.1063-4.5422-10.1063-10.1156 0-2.70001 1.05-5.24064 2.9625-7.14845s4.44844-2.9625 7.1531-2.9625c5.5781 0 10.111 4.5375 10.111 10.11095-.0047 2.7-1.0547 5.2406-2.9672 7.1531z" fill="#0897ab" class="svgShape color000000-3 selectable"></path><path d="m12.4687 11.0625c-1.5562-.6047-2.0578-1.06875-2.0578-1.91719 0-.65156.4828-1.41562 1.8469-1.41562.5016 0 .9891.08437 1.4531.25312.225.07969.4688.07032.6844-.03281.2156-.10312.375-.28594.45-.51094.1547-.45469-.0891-.95156-.5391-1.11094-.4921-.17343-1.0453-.27187-1.65-.29999v-.82501c0-.51562-.4218-.9375-.9375-.9375-.5156 0-.9375.42188-.9375.9375v1.04532c-.4781.15469-.89995.38906-1.26089.69843-.69844.6-1.08281 1.43907-1.08281 2.36719 0 .82034.29062 1.53284.86719 2.11404.51093.5157 1.24691.9375 2.25471 1.2938 1.4297.5484 1.9359 1.0687 1.9359 1.9781 0 1.0172-.7969 1.65-2.0812 1.65-.7782 0-1.44379-.2109-1.86098-.3891-.22968-.0984-.49218-.0937-.72187.0141-.225.1031-.39375.3-.46406.5391l-.00469.0093c-.13125.4313.08437.8907.50156 1.0641.57188.2391 1.27504.3984 1.96404.45v.8063c0 .5156.4219.9374.9375.9374s.9375-.4218.9375-.9374v-.9376c.6844-.164 1.275-.4593 1.7297-.8718.6797-.6141 1.0547-1.486 1.0547-2.4469 0-1.6547-.9047-2.7094-3.0188-3.525z" fill="#0897ab" class="svgShape color000000-4 selectable"></path></g></svg></g></svg>